<svg width="259" height="60" viewBox="0 0 259 60" fill="none" xmlns="http://www.w3.org/2000/svg">
<path d="M17.0703 29.7566C15.7849 29.7564 14.5284 30.1198 13.4595 30.801C12.3907 31.4821 11.5577 32.4504 11.0657 33.5833C10.5737 34.7162 10.4449 35.9628 10.6956 37.1655C10.9463 38.3682 11.5652 39.473 12.4741 40.3401C13.383 41.2072 14.541 41.7977 15.8017 42.0369C17.0623 42.276 18.369 42.1532 19.5565 41.6838C20.7439 41.2144 21.7588 40.4197 22.4728 39.4C23.1867 38.3803 23.5677 37.1815 23.5675 35.9552V35.9478C23.5671 35.1343 23.3986 34.3288 23.0719 33.5773C22.7451 32.8259 22.2664 32.1432 21.6631 31.5683C21.0597 30.9934 20.3436 30.5375 19.5555 30.2266C18.7675 29.9157 17.923 29.756 17.0703 29.7566Z" fill="#0A57FF"/>
<path d="M17.0678 25.7448C18.2728 25.7416 19.4695 25.935 20.6061 26.3166C19.81 24.1305 19.8159 21.7513 20.623 19.5689C21.43 17.3865 22.9904 15.5305 25.0481 14.305C27.1059 13.0796 29.539 12.5576 31.9485 12.8244C34.3581 13.0913 36.6011 14.1313 38.3099 15.7739L47.7793 6.73966C38.3519 -2.25024 23.0697 -2.24602 13.6467 6.74915C10.4356 9.81315 8.19579 13.6793 7.18456 17.9033C6.17333 22.1273 6.43174 26.5378 7.93009 30.628C8.88676 29.1351 10.2296 27.9018 11.8298 27.0467C13.43 26.1916 15.2337 25.7433 17.0678 25.7448Z" fill="#0A57FF"/>
<path d="M30.7104 33.1661C29.5055 33.1685 28.3089 32.9752 27.1721 32.5944C27.9682 34.7724 27.9675 37.1434 27.17 39.321C26.3725 41.4986 24.8253 43.3541 22.7806 44.5852C20.736 45.8162 18.3145 46.3501 15.911 46.0998C13.5075 45.8494 11.2638 44.8296 9.54572 43.2067L0 52.32C9.41635 61.3184 24.6964 61.3289 34.1271 52.3443C37.3567 49.2658 39.6046 45.3764 40.6099 41.1278C41.6151 36.8791 41.3364 32.4456 39.8061 28.342C38.8475 29.8199 37.5084 31.039 35.9163 31.8834C34.3242 32.7279 32.532 33.1694 30.7104 33.1661Z" fill="#0A57FF"/>
<path d="M24.2236 22.9475C24.2247 24.5906 24.9097 26.166 26.128 27.3274C27.3464 28.4887 28.9983 29.1408 30.7206 29.1403C32.4428 29.1398 34.0944 28.4868 35.312 27.3248C36.5297 26.1627 37.2137 24.5869 37.2137 22.9438C37.2137 21.3007 36.5297 19.7249 35.312 18.5629C34.0944 17.4009 32.4428 16.7478 30.7206 16.7473C28.9983 16.7468 27.3464 17.3989 26.128 18.5603C24.9097 19.7216 24.2247 21.297 24.2236 22.9401V22.9475Z" fill="#0A57FF"/>
<path d="M57.4217 23.312C55.9657 23.312 54.5704 23.1213 53.2357 22.74C51.901 22.3413 50.8264 21.83 50.0117 21.206L51.4417 18.034C52.2217 18.5887 53.1404 19.048 54.1977 19.412C55.2724 19.7587 56.3557 19.932 57.4477 19.932C58.2797 19.932 58.947 19.854 59.4497 19.698C59.9697 19.5247 60.351 19.2907 60.5937 18.996C60.8364 18.7013 60.9577 18.3633 60.9577 17.982C60.9577 17.4967 60.767 17.1153 60.3857 16.838C60.0044 16.5433 59.5017 16.3093 58.8777 16.136C58.2537 15.9453 57.5604 15.772 56.7977 15.616C56.0524 15.4427 55.2984 15.2347 54.5357 14.992C53.7904 14.7493 53.1057 14.4373 52.4817 14.056C51.8577 13.6747 51.3464 13.172 50.9477 12.548C50.5664 11.924 50.3757 11.1267 50.3757 10.156C50.3757 9.116 50.653 8.17133 51.2077 7.322C51.7797 6.45533 52.629 5.77067 53.7557 5.268C54.8997 4.748 56.3297 4.488 58.0457 4.488C59.1897 4.488 60.3164 4.62667 61.4257 4.904C62.535 5.164 63.5144 5.56267 64.3637 6.1L63.0637 9.298C62.2144 8.81267 61.365 8.45733 60.5157 8.232C59.6664 7.98933 58.8344 7.868 58.0197 7.868C57.205 7.868 56.5377 7.96333 56.0177 8.154C55.4977 8.34467 55.125 8.596 54.8997 8.908C54.6744 9.20267 54.5617 9.54933 54.5617 9.948C54.5617 10.416 54.7524 10.7973 55.1337 11.092C55.515 11.3693 56.0177 11.5947 56.6417 11.768C57.2657 11.9413 57.9504 12.1147 58.6957 12.288C59.4584 12.4613 60.2124 12.6607 60.9577 12.886C61.7204 13.1113 62.4137 13.4147 63.0377 13.796C63.6617 14.1773 64.1644 14.68 64.5457 15.304C64.9444 15.928 65.1437 16.7167 65.1437 17.67C65.1437 18.6927 64.8577 19.6287 64.2857 20.478C63.7137 21.3273 62.8557 22.012 61.7117 22.532C60.585 23.052 59.155 23.312 57.4217 23.312ZM71.7918 18.84L71.5578 13.978L80.2678 4.8H84.9478L77.0958 13.25L74.7558 15.746L71.7918 18.84ZM68.0218 23V4.8H72.2078V23H68.0218ZM80.4758 23L74.0018 15.07L76.7578 12.08L85.3898 23H80.4758ZM87.2679 23V4.8H91.4799V23H87.2679ZM95.7991 23V4.8H100.011V19.568H109.137V23H95.7991ZM111.491 23V4.8H115.703V19.568H124.829V23H111.491ZM140.525 23.312C139.069 23.312 137.674 23.1213 136.339 22.74C135.005 22.3413 133.93 21.83 133.115 21.206L134.545 18.034C135.325 18.5887 136.244 19.048 137.301 19.412C138.376 19.7587 139.459 19.932 140.551 19.932C141.383 19.932 142.051 19.854 142.553 19.698C143.073 19.5247 143.455 19.2907 143.697 18.996C143.94 18.7013 144.061 18.3633 144.061 17.982C144.061 17.4967 143.871 17.1153 143.489 16.838C143.108 16.5433 142.605 16.3093 141.981 16.136C141.357 15.9453 140.664 15.772 139.901 15.616C139.156 15.4427 138.402 15.2347 137.639 14.992C136.894 14.7493 136.209 14.4373 135.585 14.056C134.961 13.6747 134.45 13.172 134.051 12.548C133.67 11.924 133.479 11.1267 133.479 10.156C133.479 9.116 133.757 8.17133 134.311 7.322C134.883 6.45533 135.733 5.77067 136.859 5.268C138.003 4.748 139.433 4.488 141.149 4.488C142.293 4.488 143.42 4.62667 144.529 4.904C145.639 5.164 146.618 5.56267 147.467 6.1L146.167 9.298C145.318 8.81267 144.469 8.45733 143.619 8.232C142.77 7.98933 141.938 7.868 141.123 7.868C140.309 7.868 139.641 7.96333 139.121 8.154C138.601 8.34467 138.229 8.596 138.003 8.908C137.778 9.20267 137.665 9.54933 137.665 9.948C137.665 10.416 137.856 10.7973 138.237 11.092C138.619 11.3693 139.121 11.5947 139.745 11.768C140.369 11.9413 141.054 12.1147 141.799 12.288C142.562 12.4613 143.316 12.6607 144.061 12.886C144.824 13.1113 145.517 13.4147 146.141 13.796C146.765 14.1773 147.268 14.68 147.649 15.304C148.048 15.928 148.247 16.7167 148.247 17.67C148.247 18.6927 147.961 19.6287 147.389 20.478C146.817 21.3273 145.959 22.012 144.815 22.532C143.689 23.052 142.259 23.312 140.525 23.312ZM154.641 23V8.232H148.817V4.8H164.677V8.232H158.853V23H154.641ZM163.638 23L171.75 4.8H175.91L184.048 23H179.628L172.972 6.932H174.636L167.954 23H163.638ZM167.694 19.1L168.812 15.902H178.172L179.316 19.1H167.694ZM188.792 23V8.232H182.968V4.8H198.828V8.232H193.004V23H188.792ZM201.094 23V4.8H205.306V23H201.094ZM218.465 23.312C217.027 23.312 215.692 23.078 214.461 22.61C213.248 22.142 212.191 21.4833 211.289 20.634C210.405 19.7847 209.712 18.788 209.209 17.644C208.724 16.5 208.481 15.252 208.481 13.9C208.481 12.548 208.724 11.3 209.209 10.156C209.712 9.012 210.414 8.01533 211.315 7.166C212.217 6.31667 213.274 5.658 214.487 5.19C215.701 4.722 217.018 4.488 218.439 4.488C219.878 4.488 221.195 4.722 222.391 5.19C223.605 5.658 224.653 6.31667 225.537 7.166C226.439 8.01533 227.141 9.012 227.643 10.156C228.146 11.2827 228.397 12.5307 228.397 13.9C228.397 15.252 228.146 16.5087 227.643 17.67C227.141 18.814 226.439 19.8107 225.537 20.66C224.653 21.492 223.605 22.142 222.391 22.61C221.195 23.078 219.887 23.312 218.465 23.312ZM218.439 19.724C219.254 19.724 219.999 19.5853 220.675 19.308C221.369 19.0307 221.975 18.632 222.495 18.112C223.015 17.592 223.414 16.9767 223.691 16.266C223.986 15.5553 224.133 14.7667 224.133 13.9C224.133 13.0333 223.986 12.2447 223.691 11.534C223.414 10.8233 223.015 10.208 222.495 9.688C221.993 9.168 221.395 8.76933 220.701 8.492C220.008 8.21467 219.254 8.076 218.439 8.076C217.625 8.076 216.871 8.21467 216.177 8.492C215.501 8.76933 214.903 9.168 214.383 9.688C213.863 10.208 213.456 10.8233 213.161 11.534C212.884 12.2447 212.745 13.0333 212.745 13.9C212.745 14.7493 212.884 15.538 213.161 16.266C213.456 16.9767 213.855 17.592 214.357 18.112C214.877 18.632 215.484 19.0307 216.177 19.308C216.871 19.5853 217.625 19.724 218.439 19.724ZM231.563 23V4.8H235.047L245.785 17.904H244.095V4.8H248.255V23H244.797L234.033 9.896H235.723V23H231.563ZM49.0497 55L57.1617 36.8H61.3217L69.4597 55H65.0397L58.3837 38.932H60.0477L53.3657 55H49.0497ZM53.1057 51.1L54.2237 47.902H63.5837L64.7277 51.1H53.1057ZM79.804 55.312C78.4 55.312 77.0914 55.0867 75.878 54.636C74.682 54.168 73.642 53.5093 72.758 52.66C71.874 51.8107 71.1807 50.814 70.678 49.67C70.1927 48.526 69.95 47.2693 69.95 45.9C69.95 44.5307 70.1927 43.274 70.678 42.13C71.1807 40.986 71.874 39.9893 72.758 39.14C73.6594 38.2907 74.708 37.6407 75.904 37.19C77.1 36.722 78.4087 36.488 79.83 36.488C81.4074 36.488 82.8287 36.7653 84.094 37.32C85.3767 37.8573 86.4514 38.6547 87.318 39.712L84.614 42.208C83.99 41.4973 83.2967 40.9687 82.534 40.622C81.7714 40.258 80.9394 40.076 80.038 40.076C79.1887 40.076 78.4087 40.2147 77.698 40.492C76.9874 40.7693 76.372 41.168 75.852 41.688C75.332 42.208 74.9247 42.8233 74.63 43.534C74.3527 44.2447 74.214 45.0333 74.214 45.9C74.214 46.7667 74.3527 47.5553 74.63 48.266C74.9247 48.9767 75.332 49.592 75.852 50.112C76.372 50.632 76.9874 51.0307 77.698 51.308C78.4087 51.5853 79.1887 51.724 80.038 51.724C80.9394 51.724 81.7714 51.5507 82.534 51.204C83.2967 50.84 83.99 50.294 84.614 49.566L87.318 52.062C86.4514 53.1193 85.3767 53.9253 84.094 54.48C82.8287 55.0347 81.3987 55.312 79.804 55.312ZM87.4403 55L95.5523 36.8H99.7123L107.85 55H103.43L96.7743 38.932H98.4383L91.7563 55H87.4403ZM91.4963 51.1L92.6143 47.902H101.974L103.118 51.1H91.4963ZM109.739 55V36.8H118.007C119.983 36.8 121.725 37.1813 123.233 37.944C124.741 38.6893 125.919 39.738 126.769 41.09C127.618 42.442 128.043 44.0453 128.043 45.9C128.043 47.7373 127.618 49.3407 126.769 50.71C125.919 52.062 124.741 53.1193 123.233 53.882C121.725 54.6273 119.983 55 118.007 55H109.739ZM113.951 51.542H117.799C119.012 51.542 120.061 51.3167 120.945 50.866C121.846 50.398 122.539 49.7393 123.025 48.89C123.527 48.0407 123.779 47.044 123.779 45.9C123.779 44.7387 123.527 43.742 123.025 42.91C122.539 42.0607 121.846 41.4107 120.945 40.96C120.061 40.492 119.012 40.258 117.799 40.258H113.951V51.542ZM135.093 44.132H143.855V47.408H135.093V44.132ZM135.405 51.62H145.311V55H131.219V36.8H144.973V40.18H135.405V51.62ZM148.662 55V36.8H152.146L159.894 49.644H158.048L165.666 36.8H169.124L169.176 55H165.224L165.198 42.858H165.926L159.842 53.076H157.944L151.73 42.858H152.614V55H148.662ZM178.018 55V47.564L178.98 50.112L170.972 36.8H175.444L181.58 47.018H179.006L185.168 36.8H189.302L181.294 50.112L182.23 47.564V55H178.018Z" fill="#0A57FF"/>
</svg>
