<svg width="258" height="60" viewBox="0 0 258 60" fill="none" xmlns="http://www.w3.org/2000/svg">
<path d="M17.0703 29.7566C15.7849 29.7564 14.5284 30.1198 13.4595 30.801C12.3907 31.4821 11.5577 32.4504 11.0657 33.5833C10.5737 34.7162 10.4449 35.9628 10.6956 37.1655C10.9463 38.3682 11.5652 39.473 12.4741 40.3401C13.383 41.2072 14.541 41.7977 15.8017 42.0369C17.0623 42.276 18.369 42.1532 19.5565 41.6838C20.7439 41.2144 21.7588 40.4197 22.4728 39.4C23.1867 38.3803 23.5677 37.1815 23.5675 35.9552V35.9478C23.5671 35.1343 23.3986 34.3288 23.0719 33.5773C22.7451 32.8259 22.2664 32.1432 21.6631 31.5683C21.0597 30.9934 20.3436 30.5375 19.5555 30.2266C18.7675 29.9157 17.923 29.756 17.0703 29.7566Z" fill="white"/>
<path d="M17.0678 25.7448C18.2728 25.7416 19.4695 25.935 20.6061 26.3166C19.81 24.1305 19.8159 21.7513 20.623 19.5689C21.43 17.3865 22.9904 15.5305 25.0481 14.305C27.1059 13.0796 29.539 12.5576 31.9485 12.8244C34.3581 13.0913 36.6011 14.1313 38.3099 15.7739L47.7793 6.73966C38.3519 -2.25024 23.0697 -2.24602 13.6467 6.74915C10.4356 9.81315 8.19579 13.6793 7.18456 17.9033C6.17333 22.1273 6.43174 26.5378 7.93009 30.628C8.88676 29.1351 10.2296 27.9018 11.8298 27.0467C13.43 26.1916 15.2337 25.7433 17.0678 25.7448Z" fill="white"/>
<path d="M30.7104 33.1661C29.5055 33.1685 28.3089 32.9752 27.1721 32.5944C27.9682 34.7724 27.9675 37.1434 27.17 39.321C26.3725 41.4986 24.8253 43.3541 22.7806 44.5852C20.736 45.8162 18.3145 46.3501 15.911 46.0998C13.5075 45.8494 11.2638 44.8296 9.54572 43.2067L0 52.32C9.41635 61.3184 24.6964 61.3289 34.1271 52.3443C37.3567 49.2658 39.6046 45.3764 40.6099 41.1278C41.6151 36.8791 41.3364 32.4456 39.8061 28.342C38.8475 29.8199 37.5084 31.039 35.9163 31.8834C34.3242 32.7279 32.532 33.1694 30.7104 33.1661Z" fill="white"/>
<path d="M24.2236 22.9475C24.2247 24.5906 24.9097 26.166 26.128 27.3274C27.3464 28.4887 28.9983 29.1408 30.7206 29.1403C32.4428 29.1398 34.0944 28.4868 35.312 27.3248C36.5297 26.1627 37.2137 24.5869 37.2137 22.9438C37.2137 21.3007 36.5297 19.7249 35.312 18.5629C34.0944 17.4009 32.4428 16.7478 30.7206 16.7473C28.9983 16.7468 27.3464 17.3989 26.128 18.5603C24.9097 19.7216 24.2247 21.297 24.2236 22.9401V22.9475Z" fill="white"/>
<path d="M56.138 23.312C54.682 23.312 53.2867 23.1213 51.952 22.74C50.6173 22.3413 49.5427 21.83 48.728 21.206L50.158 18.034C50.938 18.5887 51.8567 19.048 52.914 19.412C53.9887 19.7587 55.072 19.932 56.164 19.932C56.996 19.932 57.6633 19.854 58.166 19.698C58.686 19.5247 59.0673 19.2907 59.31 18.996C59.5527 18.7013 59.674 18.3633 59.674 17.982C59.674 17.4967 59.4833 17.1153 59.102 16.838C58.7207 16.5433 58.218 16.3093 57.594 16.136C56.97 15.9453 56.2767 15.772 55.514 15.616C54.7687 15.4427 54.0147 15.2347 53.252 14.992C52.5067 14.7493 51.822 14.4373 51.198 14.056C50.574 13.6747 50.0627 13.172 49.664 12.548C49.2827 11.924 49.092 11.1267 49.092 10.156C49.092 9.116 49.3693 8.17133 49.924 7.322C50.496 6.45533 51.3453 5.77067 52.472 5.268C53.616 4.748 55.046 4.488 56.762 4.488C57.906 4.488 59.0327 4.62667 60.142 4.904C61.2513 5.164 62.2307 5.56267 63.08 6.1L61.78 9.298C60.9307 8.81267 60.0813 8.45733 59.232 8.232C58.3827 7.98933 57.5507 7.868 56.736 7.868C55.9213 7.868 55.254 7.96333 54.734 8.154C54.214 8.34467 53.8413 8.596 53.616 8.908C53.3907 9.20267 53.278 9.54933 53.278 9.948C53.278 10.416 53.4687 10.7973 53.85 11.092C54.2313 11.3693 54.734 11.5947 55.358 11.768C55.982 11.9413 56.6667 12.1147 57.412 12.288C58.1747 12.4613 58.9287 12.6607 59.674 12.886C60.4367 13.1113 61.13 13.4147 61.754 13.796C62.378 14.1773 62.8807 14.68 63.262 15.304C63.6607 15.928 63.86 16.7167 63.86 17.67C63.86 18.6927 63.574 19.6287 63.002 20.478C62.43 21.3273 61.572 22.012 60.428 22.532C59.3013 23.052 57.8713 23.312 56.138 23.312ZM70.5081 18.84L70.2741 13.978L78.9841 4.8H83.6641L75.8121 13.25L73.4721 15.746L70.5081 18.84ZM66.7381 23V4.8H70.9241V23H66.7381ZM79.1921 23L72.7181 15.07L75.4741 12.08L84.1061 23H79.1921ZM85.9842 23V4.8H90.1962V23H85.9842ZM94.5154 23V4.8H98.7274V19.568H107.853V23H94.5154ZM110.207 23V4.8H114.419V19.568H123.545V23H110.207ZM139.242 23.312C137.786 23.312 136.39 23.1213 135.056 22.74C133.721 22.3413 132.646 21.83 131.832 21.206L133.262 18.034C134.042 18.5887 134.96 19.048 136.018 19.412C137.092 19.7587 138.176 19.932 139.268 19.932C140.1 19.932 140.767 19.854 141.27 19.698C141.79 19.5247 142.171 19.2907 142.414 18.996C142.656 18.7013 142.778 18.3633 142.778 17.982C142.778 17.4967 142.587 17.1153 142.206 16.838C141.824 16.5433 141.322 16.3093 140.698 16.136C140.074 15.9453 139.38 15.772 138.618 15.616C137.872 15.4427 137.118 15.2347 136.356 14.992C135.61 14.7493 134.926 14.4373 134.302 14.056C133.678 13.6747 133.166 13.172 132.768 12.548C132.386 11.924 132.196 11.1267 132.196 10.156C132.196 9.116 132.473 8.17133 133.028 7.322C133.6 6.45533 134.449 5.77067 135.576 5.268C136.72 4.748 138.15 4.488 139.866 4.488C141.01 4.488 142.136 4.62667 143.246 4.904C144.355 5.164 145.334 5.56267 146.184 6.1L144.884 9.298C144.034 8.81267 143.185 8.45733 142.336 8.232C141.486 7.98933 140.654 7.868 139.84 7.868C139.025 7.868 138.358 7.96333 137.838 8.154C137.318 8.34467 136.945 8.596 136.72 8.908C136.494 9.20267 136.382 9.54933 136.382 9.948C136.382 10.416 136.572 10.7973 136.954 11.092C137.335 11.3693 137.838 11.5947 138.462 11.768C139.086 11.9413 139.77 12.1147 140.516 12.288C141.278 12.4613 142.032 12.6607 142.778 12.886C143.54 13.1113 144.234 13.4147 144.858 13.796C145.482 14.1773 145.984 14.68 146.366 15.304C146.764 15.928 146.964 16.7167 146.964 17.67C146.964 18.6927 146.678 19.6287 146.106 20.478C145.534 21.3273 144.676 22.012 143.532 22.532C142.405 23.052 140.975 23.312 139.242 23.312ZM153.358 23V8.232H147.534V4.8H163.394V8.232H157.57V23H153.358ZM162.354 23L170.466 4.8H174.626L182.764 23H178.344L171.688 6.932H173.352L166.67 23H162.354ZM166.41 19.1L167.528 15.902H176.888L178.032 19.1H166.41ZM187.508 23V8.232H181.684V4.8H197.544V8.232H191.72V23H187.508ZM199.81 23V4.8H204.022V23H199.81ZM217.182 23.312C215.743 23.312 214.408 23.078 213.178 22.61C211.964 22.142 210.907 21.4833 210.006 20.634C209.122 19.7847 208.428 18.788 207.926 17.644C207.44 16.5 207.198 15.252 207.198 13.9C207.198 12.548 207.44 11.3 207.926 10.156C208.428 9.012 209.13 8.01533 210.032 7.166C210.933 6.31667 211.99 5.658 213.204 5.19C214.417 4.722 215.734 4.488 217.156 4.488C218.594 4.488 219.912 4.722 221.108 5.19C222.321 5.658 223.37 6.31667 224.254 7.166C225.155 8.01533 225.857 9.012 226.36 10.156C226.862 11.2827 227.114 12.5307 227.114 13.9C227.114 15.252 226.862 16.5087 226.36 17.67C225.857 18.814 225.155 19.8107 224.254 20.66C223.37 21.492 222.321 22.142 221.108 22.61C219.912 23.078 218.603 23.312 217.182 23.312ZM217.156 19.724C217.97 19.724 218.716 19.5853 219.392 19.308C220.085 19.0307 220.692 18.632 221.212 18.112C221.732 17.592 222.13 16.9767 222.408 16.266C222.702 15.5553 222.85 14.7667 222.85 13.9C222.85 13.0333 222.702 12.2447 222.408 11.534C222.13 10.8233 221.732 10.208 221.212 9.688C220.709 9.168 220.111 8.76933 219.418 8.492C218.724 8.21467 217.97 8.076 217.156 8.076C216.341 8.076 215.587 8.21467 214.894 8.492C214.218 8.76933 213.62 9.168 213.1 9.688C212.58 10.208 212.172 10.8233 211.878 11.534C211.6 12.2447 211.462 13.0333 211.462 13.9C211.462 14.7493 211.6 15.538 211.878 16.266C212.172 16.9767 212.571 17.592 213.074 18.112C213.594 18.632 214.2 19.0307 214.894 19.308C215.587 19.5853 216.341 19.724 217.156 19.724ZM230.279 23V4.8H233.763L244.501 17.904H242.811V4.8H246.971V23H243.513L232.749 9.896H234.439V23H230.279ZM47.766 55L55.878 36.8H60.038L68.176 55H63.756L57.1 38.932H58.764L52.082 55H47.766ZM51.822 51.1L52.94 47.902H62.3L63.444 51.1H51.822ZM78.5203 55.312C77.1163 55.312 75.8077 55.0867 74.5943 54.636C73.3983 54.168 72.3583 53.5093 71.4743 52.66C70.5903 51.8107 69.897 50.814 69.3943 49.67C68.909 48.526 68.6663 47.2693 68.6663 45.9C68.6663 44.5307 68.909 43.274 69.3943 42.13C69.897 40.986 70.5903 39.9893 71.4743 39.14C72.3757 38.2907 73.4243 37.6407 74.6203 37.19C75.8163 36.722 77.125 36.488 78.5463 36.488C80.1237 36.488 81.545 36.7653 82.8103 37.32C84.093 37.8573 85.1677 38.6547 86.0343 39.712L83.3303 42.208C82.7063 41.4973 82.013 40.9687 81.2503 40.622C80.4877 40.258 79.6557 40.076 78.7543 40.076C77.905 40.076 77.125 40.2147 76.4143 40.492C75.7037 40.7693 75.0883 41.168 74.5683 41.688C74.0483 42.208 73.641 42.8233 73.3463 43.534C73.069 44.2447 72.9303 45.0333 72.9303 45.9C72.9303 46.7667 73.069 47.5553 73.3463 48.266C73.641 48.9767 74.0483 49.592 74.5683 50.112C75.0883 50.632 75.7037 51.0307 76.4143 51.308C77.125 51.5853 77.905 51.724 78.7543 51.724C79.6557 51.724 80.4877 51.5507 81.2503 51.204C82.013 50.84 82.7063 50.294 83.3303 49.566L86.0343 52.062C85.1677 53.1193 84.093 53.9253 82.8103 54.48C81.545 55.0347 80.115 55.312 78.5203 55.312ZM86.1566 55L94.2686 36.8H98.4286L106.567 55H102.147L95.4906 38.932H97.1546L90.4726 55H86.1566ZM90.2126 51.1L91.3306 47.902H100.691L101.835 51.1H90.2126ZM108.455 55V36.8H116.723C118.699 36.8 120.441 37.1813 121.949 37.944C123.457 38.6893 124.636 39.738 125.485 41.09C126.334 42.442 126.759 44.0453 126.759 45.9C126.759 47.7373 126.334 49.3407 125.485 50.71C124.636 52.062 123.457 53.1193 121.949 53.882C120.441 54.6273 118.699 55 116.723 55H108.455ZM112.667 51.542H116.515C117.728 51.542 118.777 51.3167 119.661 50.866C120.562 50.398 121.256 49.7393 121.741 48.89C122.244 48.0407 122.495 47.044 122.495 45.9C122.495 44.7387 122.244 43.742 121.741 42.91C121.256 42.0607 120.562 41.4107 119.661 40.96C118.777 40.492 117.728 40.258 116.515 40.258H112.667V51.542ZM133.809 44.132H142.571V47.408H133.809V44.132ZM134.121 51.62H144.027V55H129.935V36.8H143.689V40.18H134.121V51.62ZM147.379 55V36.8H150.863L158.611 49.644H156.765L164.383 36.8H167.841L167.893 55H163.941L163.915 42.858H164.643L158.559 53.076H156.661L150.447 42.858H151.331V55H147.379ZM176.735 55V47.564L177.697 50.112L169.689 36.8H174.161L180.297 47.018H177.723L183.885 36.8H188.019L180.011 50.112L180.947 47.564V55H176.735Z" fill="white"/>
</svg>
